<svg width="232" height="238" viewBox="0 0 232 238" fill="none" xmlns="http://www.w3.org/2000/svg">
<path d="M117.771 116.161C117.771 116.161 111.326 118.962 105.477 120.181C99.6409 121.4 94.7647 121.517 93.0658 121.647C91.3669 121.764 89.1752 122.503 89.5383 126.277C89.8495 129.558 94.648 129.221 97.5659 129.078C102.312 128.832 109.004 127.612 114.853 125.55C120.702 123.488 126.655 120.311 126.655 120.311L117.771 116.161Z" fill="#5A6066"/>
<g filter="url(#filter0_i_1_306)">
<path d="M66 218.567C90.7751 218.567 110.859 198.483 110.859 173.708C110.859 148.933 90.7751 128.848 66 128.848C41.2248 128.848 21.1406 148.933 21.1406 173.708C21.1406 198.483 41.2248 218.567 66 218.567Z" fill="url(#paint0_linear_1_306)"/>
</g>
<g filter="url(#filter1_iiii_1_306)">
<path fill-rule="evenodd" clip-rule="evenodd" d="M66 231.33C97.8244 231.33 123.622 205.532 123.622 173.708C123.622 141.883 97.8244 116.086 66 116.086C34.1756 116.086 8.37787 141.888 8.37787 173.712C8.37787 205.532 34.1756 231.33 66 231.33ZM66 218.567C90.7747 218.567 110.859 198.482 110.859 173.708C110.859 148.933 90.7747 128.852 66 128.852C41.2252 128.852 21.1406 148.933 21.1406 173.708C21.1406 198.482 41.2252 218.571 66 218.571" fill="url(#paint1_linear_1_306)"/>
</g>
<g filter="url(#filter2_f_1_306)">
<path fill-rule="evenodd" clip-rule="evenodd" d="M40.8911 152.674C40.5393 152.898 40.2497 153.207 40.0492 153.573C39.8487 153.938 39.7439 154.349 39.7444 154.766V155.921C39.7445 156.423 39.9282 156.909 40.2609 157.285C40.5936 157.662 41.0524 157.904 41.5511 157.967V189.304H41.1056C40.4666 189.305 39.8457 189.517 39.3404 189.908C38.835 190.3 38.4737 190.847 38.313 191.466L37.0342 196.358C36.9548 196.663 36.9464 196.982 37.0095 197.291C37.0726 197.6 37.2057 197.89 37.3985 198.139C37.5913 198.389 37.8387 198.591 38.1216 198.729C38.4046 198.868 38.7156 198.94 39.0307 198.94H90.387C90.6974 198.941 91.0038 198.871 91.2835 198.737C91.5632 198.602 91.809 198.406 92.0025 198.164C92.196 197.921 92.3322 197.638 92.4011 197.335C92.4699 197.033 92.4695 196.718 92.4 196.416L91.278 191.544C91.1314 190.907 90.7728 190.339 90.261 189.932C89.7492 189.525 89.1145 189.304 88.4606 189.304H88.0192V157.954C88.5039 157.878 88.9453 157.631 89.2644 157.258C89.5834 156.886 89.7591 156.411 89.76 155.921V154.766C89.7609 154.349 89.6567 153.939 89.457 153.573C89.2572 153.208 88.9684 152.899 88.6174 152.674L66.4125 138.546C65.9158 138.23 65.3391 138.062 64.7501 138.062C64.1612 138.062 63.5844 138.23 63.0877 138.546L40.8911 152.674ZM81.3821 189.304V157.983H74.7409V189.304H81.3821ZM68.1037 189.304V157.983H61.4625V189.304H68.1037ZM54.8254 189.304V157.983H48.1882V189.304H54.8254Z" fill="#DC7B3C"/>
</g>
<g filter="url(#filter3_ii_1_306)">
<path d="M41.0355 153.603C41.0352 153.187 41.1398 152.777 41.3395 152.413C41.5392 152.048 41.8276 151.739 42.1781 151.515L64.383 137.383C64.8792 137.067 65.4552 136.9 66.0433 136.9C66.6314 136.9 67.2074 137.067 67.7036 137.383L89.9044 151.515C90.2556 151.739 90.5448 152.047 90.7453 152.412C90.9457 152.777 91.0509 153.186 91.0511 153.603V154.758C91.0511 155.305 90.8338 155.829 90.447 156.216C90.0602 156.603 89.5356 156.82 88.9886 156.82H43.098C42.551 156.82 42.0264 156.603 41.6396 156.216C41.2528 155.829 41.0355 155.305 41.0355 154.758V153.603Z" fill="#FFC546"/>
</g>
<path d="M41.0355 153.603C41.0352 153.187 41.1398 152.777 41.3395 152.413C41.5392 152.048 41.8276 151.739 42.1781 151.515L64.383 137.383C64.8792 137.067 65.4552 136.9 66.0433 136.9C66.6314 136.9 67.2074 137.067 67.7036 137.383L89.9044 151.515C90.2556 151.739 90.5448 152.047 90.7453 152.412C90.9457 152.777 91.0509 153.186 91.0511 153.603V154.758C91.0511 155.305 90.8338 155.829 90.447 156.216C90.0602 156.603 89.5356 156.82 88.9886 156.82H43.098C42.551 156.82 42.0264 156.603 41.6396 156.216C41.2528 155.829 41.0355 155.305 41.0355 154.758V153.603Z" fill="url(#paint2_linear_1_306)"/>
<path d="M42.8381 155.983C42.8381 155.709 42.9468 155.447 43.1402 155.253C43.3336 155.06 43.5959 154.951 43.8694 154.951H48.4481C48.7216 154.951 48.9839 155.06 49.1773 155.253C49.3707 155.447 49.4794 155.709 49.4794 155.983V189.049H42.8381V155.983Z" fill="url(#paint3_linear_1_306)"/>
<path d="M42.8381 155.983C42.8381 155.709 42.9468 155.447 43.1402 155.253C43.3336 155.06 43.5959 154.951 43.8694 154.951H48.4481C48.7216 154.951 48.9839 155.06 49.1773 155.253C49.3707 155.447 49.4794 155.709 49.4794 155.983V189.049H42.8381V155.983Z" fill="url(#paint4_linear_1_306)"/>
<path d="M56.1165 154.951H62.7536V189.049H56.1165V154.951Z" fill="url(#paint5_linear_1_306)"/>
<path d="M56.1165 154.951H62.7536V189.049H56.1165V154.951Z" fill="url(#paint6_linear_1_306)"/>
<path d="M69.3949 154.951H76.032V189.049H69.3949V154.951Z" fill="url(#paint7_linear_1_306)"/>
<path d="M69.3949 154.951H76.032V189.049H69.3949V154.951Z" fill="url(#paint8_linear_1_306)"/>
<path d="M82.6691 154.951H89.3062V189.049H82.6691V154.951Z" fill="url(#paint9_linear_1_306)"/>
<path d="M82.6691 154.951H89.3062V189.049H82.6691V154.951Z" fill="url(#paint10_linear_1_306)"/>
<g filter="url(#filter4_ii_1_306)">
<path d="M39.6 190.303C39.7616 189.684 40.1239 189.137 40.63 188.746C41.1362 188.356 41.7575 188.145 42.3967 188.145H89.7517C90.4049 188.145 91.0386 188.367 91.5496 188.774C92.0606 189.181 92.4185 189.749 92.565 190.385L93.6911 195.253C93.7614 195.555 93.7623 195.87 93.6938 196.173C93.6253 196.476 93.4892 196.76 93.2956 197.003C93.102 197.246 92.856 197.443 92.5759 197.577C92.2958 197.712 91.9889 197.782 91.6781 197.781H40.3219C40.0067 197.781 39.6957 197.709 39.4127 197.57C39.1298 197.432 38.8824 197.23 38.6896 196.98C38.4968 196.731 38.3638 196.441 38.3006 196.132C38.2375 195.823 38.2459 195.504 38.3254 195.199L39.6 190.303Z" fill="#FFC248"/>
</g>
<path d="M211.004 83.7781C211.004 83.7781 225.892 81.8717 226.346 82.9222C227.072 84.6211 216.243 96.0725 216.243 96.0725L211.004 83.7781Z" fill="#5C6063"/>
<path d="M156.846 88.2913C156.846 88.2913 164.64 79.0445 179.126 75.8802C193.613 72.7158 211.25 78.5517 215.141 88.408C219.343 99.0553 217.825 111 210.757 119.572C203.326 128.585 191.888 138.195 172.655 136.73C157.391 135.575 152.566 129.182 152.566 129.182L156.846 88.2913Z" fill="#FCD41E"/>
<path d="M194.455 99.0034C198.268 109.028 199.085 118.962 198.956 123.955C198.839 128.948 198.463 130.647 198.463 130.647C198.463 130.647 203.572 127.366 206.737 124.318C209.473 121.686 211.483 118.846 211.483 118.846C211.483 118.846 212.819 104.36 207.593 92.1948C202.366 80.0302 191.538 75.2058 191.538 75.2058C191.538 75.2058 187.828 74.4147 183.627 74.9075C179.477 75.3873 174.38 77.2159 174.38 77.2159C174.38 77.2159 188.243 82.6887 194.455 99.0034ZM163.045 82.8055C163.045 82.8055 171.929 87.552 177.648 101.065C183.73 115.422 182.511 136.613 182.511 136.613C182.511 136.613 178.737 137.196 174.6 137.106C171.929 137.041 167.169 136.068 167.169 136.068C167.169 136.068 168.531 118.962 163.655 107.641C161.489 102.622 155.99 96.3189 155.99 96.3189L156.781 87.7984L163.045 82.8055Z" fill="#414340"/>
<path opacity="0.7" d="M151.918 84.6341C151.918 84.6341 180.034 48.8533 183.873 43.7436C187.712 38.6339 193.366 29.5039 199.76 29.3223C206.153 29.1408 211.989 34.9767 214.907 43.562C217.825 52.1473 218.007 60.7975 213.442 66.5686C207.23 74.4147 190.072 86.4756 176.559 89.9383C163.045 93.4009 155.199 94.3217 155.199 94.3217L151.918 84.6341Z" fill="#6DA3AF"/>
<path opacity="0.7" d="M150.816 82.0792C150.816 82.0792 170.528 47.7509 174.73 39.5417C178.932 31.3195 182.758 23.655 181.668 18.4545C180.786 14.2786 172.538 9.96 161.217 11.607C149.895 13.2541 140.142 17.8839 138.768 28.4016C137.302 39.5417 138.041 71.4837 138.041 71.4837L136.394 87.1889L150.997 89.3806L150.816 82.0792Z" fill="#A1C5CB"/>
<path d="M84.273 61.5367C84.273 61.5367 76.6992 56.2455 73.9628 67.5672C70.7855 80.6527 80.525 78.3313 80.525 78.3313L84.273 61.5367Z" fill="black"/>
<path d="M106.086 48.6717C106.086 48.6717 104.258 39.6325 101.158 33.2389C98.0588 26.8453 93.8698 22.5267 91.8467 21.4633C89.7458 20.3739 84.1303 19.7125 78.6056 19.5439C74.8577 19.4272 71.2134 19.3623 71.2134 22.1895C71.2134 25.4836 75.4153 25.9116 78.3333 26.2098C82.5352 26.6378 86.9834 27.1825 88.5527 27.5845C91.4706 28.3108 95.2186 35.6122 96.3988 38.9063C97.5919 42.1873 99.7706 50.6819 99.7706 50.6819L106.086 48.6717Z" fill="#848484"/>
<path d="M142.049 76.788L145.33 82.4423C145.33 82.4423 150.803 77.8773 151.633 77.9681C152.45 78.0589 153.915 85.6327 153.915 85.6327C153.915 85.6327 159.025 84.3487 159.751 84.8156C160.477 85.2695 160.114 90.7553 160.114 90.7553C160.114 90.7553 166.508 91.1184 166.689 91.6631C166.871 92.2078 163.862 97.3175 163.862 97.3175C163.862 97.3175 168.972 100.417 168.881 101.247C168.79 102.064 164.498 105.449 164.498 105.449C164.498 105.449 168.518 110.014 168.155 111.194C167.792 112.374 162.034 112.66 162.034 112.66C162.034 112.66 163.408 118.599 163.032 119.144C162.669 119.689 156.275 119.598 156.275 119.598C156.275 119.598 159.375 124.617 158.921 125.161C158.467 125.706 149.026 127.651 149.026 127.651C149.026 127.651 144.279 132.943 140.843 133.643C137.445 134.33 135.889 133.552 135.889 133.552L131.907 129.623C131.907 129.623 123.05 130.44 122.232 129.895C121.415 129.35 121.234 118.936 121.234 118.936C121.234 118.936 115.58 119.364 115.203 118.664C114.827 117.964 116.02 112.18 116.02 112.18L130.805 88.6284L142.049 76.788Z" fill="#FE8D00"/>
<path d="M130.092 122.607C126.564 120.104 122.505 125.019 120.326 126.718C117.045 129.272 113.932 133.747 103.259 136.574C96.9823 138.234 97.3195 140.503 97.968 142.604C98.772 145.25 102.624 144.978 107.28 143.694C111.935 142.41 117.356 139.505 119.509 137.949C122.155 136.029 128.457 130.102 129.638 129C130.831 127.911 132.919 124.617 130.092 122.607ZM139.948 125.434C136.978 124.228 135.02 126.342 133.463 130.725C131.907 135.108 128.989 143.227 127.628 146.339C126.253 149.439 122.738 155.262 126.629 157.207C130.831 159.308 132.75 155.56 133.93 153.005C135.11 150.45 138.677 141.956 139.675 138.584C140.674 135.212 141.232 133.384 141.686 132.1C142.14 130.829 143.333 126.808 139.948 125.434ZM150.089 124.98C145.939 125.537 146.718 130.453 146.99 134.019C147.262 137.585 147.807 149.076 147.625 151.449C147.444 153.822 147.625 157.843 151.827 157.752C156.029 157.661 155.848 153.005 155.938 151.54C156.029 150.074 155.303 136.016 155.212 133.825C155.108 131.646 155.471 124.254 150.089 124.98Z" fill="#848484"/>
<path d="M86.3739 56.427C79.8377 63.2097 75.4023 83.1945 79.5264 94.8534C83.7283 106.72 92.3006 114.851 107.643 115.487C122.985 116.122 136.394 106.538 141.232 90.0161C145.862 74.1942 139.974 54.7022 123.153 48.7495C109.744 44.0159 96.0486 46.3892 86.3739 56.427Z" fill="#FEBB00"/>
<path d="M123.802 76.9695C123.802 83.8819 118.368 89.4844 111.663 89.4844C104.958 89.4844 99.5242 85.1009 99.5242 76.9695C99.5242 70.0572 104.958 64.3769 111.663 64.4547C119.146 64.5455 123.802 70.0572 123.802 76.9695Z" fill="black"/>
<path d="M83.1706 96.8377C84.1303 95.878 86.3609 92.3634 88.6434 94.7367C90.9259 97.11 86.9056 100.119 86.1794 100.767C85.2067 101.623 83.2614 102.142 82.2498 100.676C81.5625 99.6648 81.9905 98.0178 83.1706 96.8377Z" fill="#FE8D00"/>
<path d="M101.34 16.5352C101.003 19.0641 102.287 19.8422 105.632 20.737C108.667 21.5411 114.84 23.0066 116.319 24.0181C117.512 24.8352 120.43 32.3311 121.156 41.5389C121.532 46.3114 121.338 50.8505 121.156 54.4039C121 57.3608 121.61 59.332 123.983 59.6951C126.136 60.0323 127.874 58.5669 128.185 54.4039C128.548 49.385 128.834 46.7005 128.185 40.1642C127.692 35.1972 126.849 31.0991 125.267 25.743C123.97 21.3595 121.934 19.0122 119.885 17.5208C117.408 15.7441 112.039 14.6936 107.656 14.2397C103.972 13.8766 101.703 13.8247 101.34 16.5352Z" fill="#848484"/>
<defs>
<filter id="filter0_i_1_306" x="21.0156" y="128.848" width="89.8438" height="89.8438" filterUnits="userSpaceOnUse" color-interpolation-filters="sRGB">
<feFlood flood-opacity="0" result="BackgroundImageFix"/>
<feBlend mode="normal" in="SourceGraphic" in2="BackgroundImageFix" result="shape"/>
<feColorMatrix in="SourceAlpha" type="matrix" values="0 0 0 0 0 0 0 0 0 0 0 0 0 0 0 0 0 0 127 0" result="hardAlpha"/>
<feOffset dx="-0.125" dy="0.125"/>
<feGaussianBlur stdDeviation="0.25"/>
<feComposite in2="hardAlpha" operator="arithmetic" k2="-1" k3="1"/>
<feColorMatrix type="matrix" values="0 0 0 0 0.831373 0 0 0 0 0.45098 0 0 0 0 0.196078 0 0 0 1 0"/>
<feBlend mode="normal" in2="shape" result="effect1_innerShadow_1_306"/>
</filter>
<filter id="filter1_iiii_1_306" x="8.22787" y="115.936" width="115.544" height="115.544" filterUnits="userSpaceOnUse" color-interpolation-filters="sRGB">
<feFlood flood-opacity="0" result="BackgroundImageFix"/>
<feBlend mode="normal" in="SourceGraphic" in2="BackgroundImageFix" result="shape"/>
<feColorMatrix in="SourceAlpha" type="matrix" values="0 0 0 0 0 0 0 0 0 0 0 0 0 0 0 0 0 0 127 0" result="hardAlpha"/>
<feOffset dx="0.15" dy="0.15"/>
<feGaussianBlur stdDeviation="0.15"/>
<feComposite in2="hardAlpha" operator="arithmetic" k2="-1" k3="1"/>
<feColorMatrix type="matrix" values="0 0 0 0 0.886275 0 0 0 0 0.662745 0 0 0 0 0.235294 0 0 0 1 0"/>
<feBlend mode="normal" in2="shape" result="effect1_innerShadow_1_306"/>
<feColorMatrix in="SourceAlpha" type="matrix" values="0 0 0 0 0 0 0 0 0 0 0 0 0 0 0 0 0 0 127 0" result="hardAlpha"/>
<feOffset dx="0.15" dy="-0.15"/>
<feGaussianBlur stdDeviation="0.15"/>
<feComposite in2="hardAlpha" operator="arithmetic" k2="-1" k3="1"/>
<feColorMatrix type="matrix" values="0 0 0 0 0.956863 0 0 0 0 0.607843 0 0 0 0 0.294118 0 0 0 1 0"/>
<feBlend mode="normal" in2="effect1_innerShadow_1_306" result="effect2_innerShadow_1_306"/>
<feColorMatrix in="SourceAlpha" type="matrix" values="0 0 0 0 0 0 0 0 0 0 0 0 0 0 0 0 0 0 127 0" result="hardAlpha"/>
<feOffset dy="-0.15"/>
<feGaussianBlur stdDeviation="0.15"/>
<feComposite in2="hardAlpha" operator="arithmetic" k2="-1" k3="1"/>
<feColorMatrix type="matrix" values="0 0 0 0 0.956863 0 0 0 0 0.607843 0 0 0 0 0.294118 0 0 0 1 0"/>
<feBlend mode="normal" in2="effect2_innerShadow_1_306" result="effect3_innerShadow_1_306"/>
<feColorMatrix in="SourceAlpha" type="matrix" values="0 0 0 0 0 0 0 0 0 0 0 0 0 0 0 0 0 0 127 0" result="hardAlpha"/>
<feOffset dx="-0.15" dy="0.15"/>
<feGaussianBlur stdDeviation="0.15"/>
<feComposite in2="hardAlpha" operator="arithmetic" k2="-1" k3="1"/>
<feColorMatrix type="matrix" values="0 0 0 0 1 0 0 0 0 0.882353 0 0 0 0 0.337255 0 0 0 1 0"/>
<feBlend mode="normal" in2="effect3_innerShadow_1_306" result="effect4_innerShadow_1_306"/>
</filter>
<filter id="filter2_f_1_306" x="36.6677" y="137.762" width="56.0847" height="61.4787" filterUnits="userSpaceOnUse" color-interpolation-filters="sRGB">
<feFlood flood-opacity="0" result="BackgroundImageFix"/>
<feBlend mode="normal" in="SourceGraphic" in2="BackgroundImageFix" result="shape"/>
<feGaussianBlur stdDeviation="0.15" result="effect1_foregroundBlur_1_306"/>
</filter>
<filter id="filter3_ii_1_306" x="41.0355" y="136.775" width="50.0906" height="20.1703" filterUnits="userSpaceOnUse" color-interpolation-filters="sRGB">
<feFlood flood-opacity="0" result="BackgroundImageFix"/>
<feBlend mode="normal" in="SourceGraphic" in2="BackgroundImageFix" result="shape"/>
<feColorMatrix in="SourceAlpha" type="matrix" values="0 0 0 0 0 0 0 0 0 0 0 0 0 0 0 0 0 0 127 0" result="hardAlpha"/>
<feOffset dy="-0.125"/>
<feGaussianBlur stdDeviation="0.125"/>
<feComposite in2="hardAlpha" operator="arithmetic" k2="-1" k3="1"/>
<feColorMatrix type="matrix" values="0 0 0 0 0.980392 0 0 0 0 0.647059 0 0 0 0 0.172549 0 0 0 1 0"/>
<feBlend mode="normal" in2="shape" result="effect1_innerShadow_1_306"/>
<feColorMatrix in="SourceAlpha" type="matrix" values="0 0 0 0 0 0 0 0 0 0 0 0 0 0 0 0 0 0 127 0" result="hardAlpha"/>
<feOffset dx="0.075" dy="0.125"/>
<feGaussianBlur stdDeviation="0.125"/>
<feComposite in2="hardAlpha" operator="arithmetic" k2="-1" k3="1"/>
<feColorMatrix type="matrix" values="0 0 0 0 0.980392 0 0 0 0 0.647059 0 0 0 0 0.172549 0 0 0 1 0"/>
<feBlend mode="normal" in2="effect1_innerShadow_1_306" result="effect2_innerShadow_1_306"/>
</filter>
<filter id="filter4_ii_1_306" x="38.1338" y="188.02" width="55.7357" height="9.88601" filterUnits="userSpaceOnUse" color-interpolation-filters="sRGB">
<feFlood flood-opacity="0" result="BackgroundImageFix"/>
<feBlend mode="normal" in="SourceGraphic" in2="BackgroundImageFix" result="shape"/>
<feColorMatrix in="SourceAlpha" type="matrix" values="0 0 0 0 0 0 0 0 0 0 0 0 0 0 0 0 0 0 127 0" result="hardAlpha"/>
<feOffset dx="0.125" dy="-0.125"/>
<feGaussianBlur stdDeviation="0.1"/>
<feComposite in2="hardAlpha" operator="arithmetic" k2="-1" k3="1"/>
<feColorMatrix type="matrix" values="0 0 0 0 0.992157 0 0 0 0 0.658824 0 0 0 0 0.0705882 0 0 0 1 0"/>
<feBlend mode="normal" in2="shape" result="effect1_innerShadow_1_306"/>
<feColorMatrix in="SourceAlpha" type="matrix" values="0 0 0 0 0 0 0 0 0 0 0 0 0 0 0 0 0 0 127 0" result="hardAlpha"/>
<feOffset dx="-0.125" dy="0.125"/>
<feGaussianBlur stdDeviation="0.1"/>
<feComposite in2="hardAlpha" operator="arithmetic" k2="-1" k3="1"/>
<feColorMatrix type="matrix" values="0 0 0 0 1 0 0 0 0 0.8 0 0 0 0 0.290196 0 0 0 1 0"/>
<feBlend mode="normal" in2="effect1_innerShadow_1_306" result="effect2_innerShadow_1_306"/>
</filter>
<linearGradient id="paint0_linear_1_306" x1="47.6974" y1="196.14" x2="96.1661" y2="135.036" gradientUnits="userSpaceOnUse">
<stop stop-color="#F19D48"/>
<stop offset="1" stop-color="#E89A44"/>
</linearGradient>
<linearGradient id="paint1_linear_1_306" x1="66" y1="116.086" x2="66" y2="231.33" gradientUnits="userSpaceOnUse">
<stop stop-color="#FFC444"/>
<stop offset="1" stop-color="#FFC24B"/>
</linearGradient>
<linearGradient id="paint2_linear_1_306" x1="79.6661" y1="144.317" x2="77.9872" y2="146.862" gradientUnits="userSpaceOnUse">
<stop offset="0.459" stop-color="#FFCA3F"/>
<stop offset="1" stop-color="#FFCA3F" stop-opacity="0"/>
</linearGradient>
<linearGradient id="paint3_linear_1_306" x1="43.4404" y1="168.118" x2="46.6661" y2="168.118" gradientUnits="userSpaceOnUse">
<stop offset="0.167" stop-color="#FFB33B"/>
<stop offset="1" stop-color="#FFC047"/>
</linearGradient>
<linearGradient id="paint4_linear_1_306" x1="49.4794" y1="174.83" x2="47.8871" y2="174.83" gradientUnits="userSpaceOnUse">
<stop offset="0.067" stop-color="#FFC34C"/>
<stop offset="1" stop-color="#FFC34C" stop-opacity="0"/>
</linearGradient>
<linearGradient id="paint5_linear_1_306" x1="56.7187" y1="168.118" x2="59.9404" y2="168.118" gradientUnits="userSpaceOnUse">
<stop offset="0.167" stop-color="#FFB33B"/>
<stop offset="1" stop-color="#FFC047"/>
</linearGradient>
<linearGradient id="paint6_linear_1_306" x1="62.7536" y1="174.83" x2="61.1655" y2="174.83" gradientUnits="userSpaceOnUse">
<stop offset="0.067" stop-color="#FFC34C"/>
<stop offset="1" stop-color="#FFC34C" stop-opacity="0"/>
</linearGradient>
<linearGradient id="paint7_linear_1_306" x1="69.9971" y1="168.118" x2="73.2187" y2="168.118" gradientUnits="userSpaceOnUse">
<stop offset="0.167" stop-color="#FFB33B"/>
<stop offset="1" stop-color="#FFC047"/>
</linearGradient>
<linearGradient id="paint8_linear_1_306" x1="76.032" y1="174.83" x2="74.4439" y2="174.83" gradientUnits="userSpaceOnUse">
<stop offset="0.067" stop-color="#FFC34C"/>
<stop offset="1" stop-color="#FFC34C" stop-opacity="0"/>
</linearGradient>
<linearGradient id="paint9_linear_1_306" x1="83.2755" y1="168.118" x2="86.4971" y2="168.118" gradientUnits="userSpaceOnUse">
<stop offset="0.167" stop-color="#FFB33B"/>
<stop offset="1" stop-color="#FFC047"/>
</linearGradient>
<linearGradient id="paint10_linear_1_306" x1="89.3104" y1="174.83" x2="87.7222" y2="174.83" gradientUnits="userSpaceOnUse">
<stop offset="0.067" stop-color="#FFC34C"/>
<stop offset="1" stop-color="#FFC34C" stop-opacity="0"/>
</linearGradient>
</defs>
</svg>
